<?xml version="1.0" encoding="utf-8"?>
<!-- Generator: Adobe Illustrator 19.0.0, SVG Export Plug-In . SVG Version: 6.00 Build 0)  -->
<svg version="1.1" id="layer" xmlns="http://www.w3.org/2000/svg" xmlns:xlink="http://www.w3.org/1999/xlink" x="0px" y="0px"
	 viewBox="-153 -46 652 652" style="enable-background:new -153 -46 652 652;" xml:space="preserve">
<style type="text/css">
	.st0{fill:#1E1E1E;}
	.st1{fill:#185CBF;}
</style>
<g id="Laag_2">
	<g id="Laag_1-2">
		<path d="M-128.3,172.9h14.5c8.5,0,15.3,4.9,15.3,14.6c0,7.2-3.8,12.3-10.5,13.9l12.6,20.3h-4.9l-12.1-19.7h-10.7v19.7h-4.1
			L-128.3,172.9z M-113.8,198.1c6.5,0,11-3.7,11-10.6c0-6.9-4.4-10.6-10.8-10.6h-10.6v21.2H-113.8z"/>
		<path d="M-94.2,197.3c0-15.3,5.9-25.2,17.7-25.2s17.7,9.8,17.7,25.2s-5.9,25.2-17.7,25.2S-94.2,212.7-94.2,197.3z M-63,197.3
			c0-13.2-4.4-21.3-13.5-21.3s-13.5,8-13.5,21.3c0,13.2,4.5,21.3,13.5,21.3S-63,210.6-63,197.3z"/>
		<path d="M-41.6,172.9h4.5l16.5,48.8H-25l-4.3-13h-20.1l-4.3,13H-58L-41.6,172.9z M-30.6,204.9l-7.1-21.5c-0.6-1.9-1.2-3.8-1.7-5.7
			c-0.5,1.9-1,3.8-1.7,5.7l-7.1,21.5H-30.6z"/>
		<path d="M15.2,197.3c0,14.1-5.1,24.4-20.2,24.4h-11.4v-48.8H-5C10.1,172.9,15.2,183.3,15.2,197.3z M-12.3,176.9v40.8H-5
			c11.7,0,16-7.3,16-20.4c0-13.1-4.3-20.4-16-20.4H-12.3z"/>
		<path d="M21.8,172.9h4.3l14.8,29.4l14.8-29.4H60v48.8h-4.1v-29.8c0-4,0-7.7,0.4-11.6l-14.3,28.5h-2.1l-14.3-28.5
			c0.3,3.8,0.4,7.6,0.4,11.6v29.8h-4.2V172.9z"/>
		<path d="M80.7,172.9h4.5l16.5,48.8h-4.4l-4.3-13H72.9l-4.3,13h-4.4L80.7,172.9z M91.7,204.9l-7.1-21.5c-0.6-1.9-1.2-3.8-1.7-5.7
			c-0.5,1.9-1,3.8-1.7,5.7l-7.1,21.5H91.7z"/>
		<path d="M134.8,188.4c0,10.5-6.4,15.6-16.4,15.6H110v17.8h-4.2v-48.9h12.7C128.4,172.9,134.8,178,134.8,188.4z M109.9,176.9V200
			h8.7c7.6,0,12-4,12-11.6s-4.3-11.5-12-11.5H109.9z"/>
		<path d="M158.7,176.9h-13.5v-4h31.1v4h-13.5v44.8h-4.1L158.7,176.9z"/>
		<path d="M176.9,197.3c0-15.3,5.9-25.2,17.7-25.2s17.6,9.8,17.6,25.2s-6,25.2-17.6,25.2S176.9,212.7,176.9,197.3z M208,197.3
			c0-13.2-4.4-21.3-13.5-21.3s-13.5,8-13.5,21.3c0,13.2,4.5,21.3,13.5,21.3S208,210.6,208,197.3z"/>
		<path class="st0" d="M-72,336.2h46.8v39.6h-106.3v-39.6l45-46.8h-41.4v-39.6h100.9v39.6L-72,336.2z"/>
		<path class="st0" d="M41.7,339.8h54.1v36H-5.2V249.7h97.3v36H41.7v9h46.8v36H41.7V339.8z"/>
		<path class="st0" d="M183.8,375.8l-21.6-41.4h-1.8v41.4h-46.8V249.7h52.2c8.7-0.1,17.3,0.9,25.7,3.2c6.5,1.7,12.6,4.7,18,8.8
			c4.6,3.6,8.2,8.3,10.5,13.6c2.3,5.5,3.5,11.5,3.4,17.5c0.2,5.5-0.7,11-2.5,16.2c-1.4,3.8-3.3,7.3-5.6,10.6c-2.2,3-5,5.6-8.1,7.6
			l30.6,48.6H183.8z M165.7,301.9c2.8,0.1,5.6-0.9,7.8-2.7c3.7-3.2,4.1-8.8,0.9-12.5c-0.3-0.3-0.6-0.6-0.9-0.9
			c-2.1-1.9-4.9-2.8-7.8-2.7h-5.4v18.9H165.7z"/>
		<path class="st0" d="M344.9,185.8c-52.9,0-95.7,42.9-95.7,95.7s42.9,95.7,95.7,95.7c52.8,0,95.7-42.9,95.7-95.7
			C440.7,228.6,397.8,185.8,344.9,185.8C345,185.8,345,185.8,344.9,185.8z M344.9,326.7c-25,0-45.3-20.2-45.4-45.2
			c0-25,20.2-45.3,45.2-45.4c25,0,45.3,20.2,45.4,45.2c0,0.1,0,0.1,0,0.2C390.1,306.4,369.9,326.7,344.9,326.7z"/>
		
			<rect x="219.2" y="253.8" transform="matrix(-0.8462 0.5329 -0.5329 -0.8462 789.3261 331.2517)" class="st1" width="255.3" height="51.4"/>
	</g>
</g>
</svg>
